<mxfile host="Electron" agent="Mozilla/5.0 (Windows NT 10.0; Win64; x64) AppleWebKit/537.36 (KHTML, like Gecko) draw.io/24.7.17 Chrome/128.0.6613.36 Electron/32.0.1 Safari/537.36" version="24.7.17">
  <diagram name="Page-1" id="8FYAutA6dvifkf_SVjFv">
    <mxGraphModel dx="1434" dy="836" grid="1" gridSize="10" guides="1" tooltips="1" connect="1" arrows="1" fold="1" page="1" pageScale="1" pageWidth="850" pageHeight="1100" math="0" shadow="0">
      <root>
        <mxCell id="0" />
        <mxCell id="1" parent="0" />
        <mxCell id="Fu-2oEhzAXXxGS_MoggT-2" value="Azure Static Web App&lt;br&gt;custom domain" style="image;aspect=fixed;html=1;points=[];align=center;fontSize=12;image=img/lib/azure2/preview/Static_Apps.svg;" vertex="1" parent="1">
          <mxGeometry x="95" y="463" width="68" height="54" as="geometry" />
        </mxCell>
        <mxCell id="Fu-2oEhzAXXxGS_MoggT-3" value="Blazor WASM on Browser" style="shape=image;verticalLabelPosition=bottom;labelBackgroundColor=default;verticalAlign=top;aspect=fixed;imageAspect=0;image=https://www.htmlelements.com/blazor/images/blazor-logo.png;" vertex="1" parent="1">
          <mxGeometry x="311" y="450" width="60" height="60" as="geometry" />
        </mxCell>
        <mxCell id="Fu-2oEhzAXXxGS_MoggT-5" style="edgeStyle=orthogonalEdgeStyle;rounded=0;orthogonalLoop=1;jettySize=auto;html=1;entryX=-0.083;entryY=0.617;entryDx=0;entryDy=0;entryPerimeter=0;" edge="1" parent="1" source="Fu-2oEhzAXXxGS_MoggT-2">
          <mxGeometry relative="1" as="geometry">
            <mxPoint x="311.02" y="490.02" as="targetPoint" />
          </mxGeometry>
        </mxCell>
        <mxCell id="Fu-2oEhzAXXxGS_MoggT-6" value="Azure Blob Storage&lt;br&gt;with RBAC" style="verticalLabelPosition=bottom;html=1;verticalAlign=top;align=center;strokeColor=none;fillColor=#00BEF2;shape=mxgraph.azure.storage_blob;" vertex="1" parent="1">
          <mxGeometry x="90" y="307.5" width="50" height="45" as="geometry" />
        </mxCell>
        <mxCell id="Fu-2oEhzAXXxGS_MoggT-7" value="Entra" style="image;aspect=fixed;html=1;points=[];align=center;fontSize=12;image=img/lib/azure2/other/Entra_Identity.svg;" vertex="1" parent="1">
          <mxGeometry x="530" y="450" width="68" height="60.440000000000005" as="geometry" />
        </mxCell>
        <mxCell id="Fu-2oEhzAXXxGS_MoggT-8" style="edgeStyle=orthogonalEdgeStyle;rounded=0;orthogonalLoop=1;jettySize=auto;html=1;entryX=0.029;entryY=0.496;entryDx=0;entryDy=0;entryPerimeter=0;startArrow=classic;startFill=1;" edge="1" parent="1" source="Fu-2oEhzAXXxGS_MoggT-3" target="Fu-2oEhzAXXxGS_MoggT-7">
          <mxGeometry relative="1" as="geometry" />
        </mxCell>
        <mxCell id="Fu-2oEhzAXXxGS_MoggT-9" value="Azure Key Vault&lt;br&gt;with RBAC" style="image;aspect=fixed;html=1;points=[];align=center;fontSize=12;image=img/lib/azure2/security/Key_Vaults.svg;" vertex="1" parent="1">
          <mxGeometry x="526" y="222" width="68" height="68" as="geometry" />
        </mxCell>
        <mxCell id="Fu-2oEhzAXXxGS_MoggT-10" value="API Management" style="image;aspect=fixed;html=1;points=[];align=center;fontSize=12;image=img/lib/azure2/app_services/API_Management_Services.svg;" vertex="1" parent="1">
          <mxGeometry x="306" y="228" width="65" height="60" as="geometry" />
        </mxCell>
        <mxCell id="Fu-2oEhzAXXxGS_MoggT-11" style="edgeStyle=orthogonalEdgeStyle;rounded=0;orthogonalLoop=1;jettySize=auto;html=1;entryX=0.538;entryY=1.017;entryDx=0;entryDy=0;entryPerimeter=0;startArrow=classic;startFill=1;" edge="1" parent="1" source="Fu-2oEhzAXXxGS_MoggT-3" target="Fu-2oEhzAXXxGS_MoggT-10">
          <mxGeometry relative="1" as="geometry" />
        </mxCell>
        <mxCell id="Fu-2oEhzAXXxGS_MoggT-12" style="edgeStyle=orthogonalEdgeStyle;rounded=0;orthogonalLoop=1;jettySize=auto;html=1;entryX=0.088;entryY=0.529;entryDx=0;entryDy=0;entryPerimeter=0;startArrow=classic;startFill=1;" edge="1" parent="1" source="Fu-2oEhzAXXxGS_MoggT-10" target="Fu-2oEhzAXXxGS_MoggT-9">
          <mxGeometry relative="1" as="geometry" />
        </mxCell>
        <mxCell id="Fu-2oEhzAXXxGS_MoggT-16" value="Config" style="dashed=0;outlineConnect=0;html=1;align=center;labelPosition=center;verticalLabelPosition=bottom;verticalAlign=top;shape=mxgraph.webicons.json;gradientColor=#DFDEDE" vertex="1" parent="1">
          <mxGeometry x="85" y="218" width="60" height="70" as="geometry" />
        </mxCell>
        <mxCell id="Fu-2oEhzAXXxGS_MoggT-17" value="Secrets-Meta" style="dashed=0;outlineConnect=0;html=1;align=center;labelPosition=center;verticalLabelPosition=bottom;verticalAlign=top;shape=mxgraph.webicons.json;gradientColor=#DFDEDE" vertex="1" parent="1">
          <mxGeometry x="156" y="216" width="60" height="70" as="geometry" />
        </mxCell>
        <mxCell id="Fu-2oEhzAXXxGS_MoggT-19" style="edgeStyle=orthogonalEdgeStyle;rounded=0;orthogonalLoop=1;jettySize=auto;html=1;entryX=1;entryY=0.5;entryDx=0;entryDy=0;entryPerimeter=0;startArrow=classic;startFill=1;" edge="1" parent="1" source="Fu-2oEhzAXXxGS_MoggT-3" target="Fu-2oEhzAXXxGS_MoggT-6">
          <mxGeometry relative="1" as="geometry">
            <Array as="points">
              <mxPoint x="226" y="480" />
              <mxPoint x="226" y="330" />
            </Array>
          </mxGeometry>
        </mxCell>
        <mxCell id="Fu-2oEhzAXXxGS_MoggT-20" value="1" style="ellipse;whiteSpace=wrap;html=1;aspect=fixed;rotation=0;gradientColor=#0057D2;strokeColor=none;gradientDirection=east;fillColor=#2395FF;rounded=0;pointerEvents=0;fontFamily=Helvetica;fontSize=16;fontColor=#FFFFFF;spacingTop=4;spacingBottom=4;spacingLeft=4;spacingRight=4;points=[];fontStyle=1" vertex="1" parent="1">
          <mxGeometry x="193" y="492" width="30" height="30" as="geometry" />
        </mxCell>
        <mxCell id="Fu-2oEhzAXXxGS_MoggT-22" value="2" style="ellipse;whiteSpace=wrap;html=1;aspect=fixed;rotation=0;gradientColor=#0057D2;strokeColor=none;gradientDirection=east;fillColor=#2395FF;rounded=0;pointerEvents=0;fontFamily=Helvetica;fontSize=16;fontColor=#FFFFFF;spacingTop=4;spacingBottom=4;spacingLeft=4;spacingRight=4;points=[];fontStyle=1" vertex="1" parent="1">
          <mxGeometry x="489" y="483" width="30" height="30" as="geometry" />
        </mxCell>
        <mxCell id="Fu-2oEhzAXXxGS_MoggT-23" value="3" style="ellipse;whiteSpace=wrap;html=1;aspect=fixed;rotation=0;gradientColor=#0057D2;strokeColor=none;gradientDirection=east;fillColor=#2395FF;rounded=0;pointerEvents=0;fontFamily=Helvetica;fontSize=16;fontColor=#FFFFFF;spacingTop=4;spacingBottom=4;spacingLeft=4;spacingRight=4;points=[];fontStyle=1" vertex="1" parent="1">
          <mxGeometry x="384" y="447" width="30" height="30" as="geometry" />
        </mxCell>
        <mxCell id="Fu-2oEhzAXXxGS_MoggT-24" value="4" style="ellipse;whiteSpace=wrap;html=1;aspect=fixed;rotation=0;gradientColor=#0057D2;strokeColor=none;gradientDirection=east;fillColor=#2395FF;rounded=0;pointerEvents=0;fontFamily=Helvetica;fontSize=16;fontColor=#FFFFFF;spacingTop=4;spacingBottom=4;spacingLeft=4;spacingRight=4;points=[];fontStyle=1" vertex="1" parent="1">
          <mxGeometry x="156" y="332" width="30" height="30" as="geometry" />
        </mxCell>
        <mxCell id="Fu-2oEhzAXXxGS_MoggT-25" value="5" style="ellipse;whiteSpace=wrap;html=1;aspect=fixed;rotation=0;gradientColor=#0057D2;strokeColor=none;gradientDirection=east;fillColor=#2395FF;rounded=0;pointerEvents=0;fontFamily=Helvetica;fontSize=16;fontColor=#FFFFFF;spacingTop=4;spacingBottom=4;spacingLeft=4;spacingRight=4;points=[];fontStyle=1" vertex="1" parent="1">
          <mxGeometry x="271" y="448" width="30" height="30" as="geometry" />
        </mxCell>
        <mxCell id="Fu-2oEhzAXXxGS_MoggT-26" value="6" style="ellipse;whiteSpace=wrap;html=1;aspect=fixed;rotation=0;gradientColor=#0057D2;strokeColor=none;gradientDirection=east;fillColor=#2395FF;rounded=0;pointerEvents=0;fontFamily=Helvetica;fontSize=16;fontColor=#FFFFFF;spacingTop=4;spacingBottom=4;spacingLeft=4;spacingRight=4;points=[];fontStyle=1" vertex="1" parent="1">
          <mxGeometry x="343" y="311" width="30" height="30" as="geometry" />
        </mxCell>
        <mxCell id="Fu-2oEhzAXXxGS_MoggT-27" value="7" style="ellipse;whiteSpace=wrap;html=1;aspect=fixed;rotation=0;gradientColor=#0057D2;strokeColor=none;gradientDirection=east;fillColor=#2395FF;rounded=0;pointerEvents=0;fontFamily=Helvetica;fontSize=16;fontColor=#FFFFFF;spacingTop=4;spacingBottom=4;spacingLeft=4;spacingRight=4;points=[];fontStyle=1" vertex="1" parent="1">
          <mxGeometry x="492" y="226" width="30" height="30" as="geometry" />
        </mxCell>
        <mxCell id="Fu-2oEhzAXXxGS_MoggT-28" value="8" style="ellipse;whiteSpace=wrap;html=1;aspect=fixed;rotation=0;gradientColor=#0057D2;strokeColor=none;gradientDirection=east;fillColor=#2395FF;rounded=0;pointerEvents=0;fontFamily=Helvetica;fontSize=16;fontColor=#FFFFFF;spacingTop=4;spacingBottom=4;spacingLeft=4;spacingRight=4;points=[];fontStyle=1" vertex="1" parent="1">
          <mxGeometry x="375" y="224" width="30" height="30" as="geometry" />
        </mxCell>
        <mxCell id="Fu-2oEhzAXXxGS_MoggT-29" value="9" style="ellipse;whiteSpace=wrap;html=1;aspect=fixed;rotation=0;gradientColor=#0057D2;strokeColor=none;gradientDirection=east;fillColor=#2395FF;rounded=0;pointerEvents=0;fontFamily=Helvetica;fontSize=16;fontColor=#FFFFFF;spacingTop=4;spacingBottom=4;spacingLeft=4;spacingRight=4;points=[];fontStyle=1" vertex="1" parent="1">
          <mxGeometry x="308" y="418" width="30" height="30" as="geometry" />
        </mxCell>
        <mxCell id="Fu-2oEhzAXXxGS_MoggT-30" value="Groups with &lt;br&gt;Storage and &lt;br&gt;KeyVault roles" style="image;aspect=fixed;html=1;points=[];align=center;fontSize=12;image=img/lib/azure2/identity/Groups.svg;" vertex="1" parent="1">
          <mxGeometry x="609" y="442" width="68" height="56.00000000000001" as="geometry" />
        </mxCell>
        <mxCell id="Fu-2oEhzAXXxGS_MoggT-33" style="edgeStyle=orthogonalEdgeStyle;rounded=0;orthogonalLoop=1;jettySize=auto;html=1;" edge="1" parent="1" source="Fu-2oEhzAXXxGS_MoggT-32">
          <mxGeometry relative="1" as="geometry">
            <mxPoint x="600" y="256" as="targetPoint" />
          </mxGeometry>
        </mxCell>
        <mxCell id="Fu-2oEhzAXXxGS_MoggT-32" value="Administrator/&lt;br&gt;User" style="verticalLabelPosition=bottom;html=1;verticalAlign=top;align=center;strokeColor=none;fillColor=#00BEF2;shape=mxgraph.azure.user;" vertex="1" parent="1">
          <mxGeometry x="700" y="231" width="47.5" height="50" as="geometry" />
        </mxCell>
        <mxCell id="Fu-2oEhzAXXxGS_MoggT-36" value="10" style="ellipse;whiteSpace=wrap;html=1;aspect=fixed;rotation=0;gradientColor=#0057D2;strokeColor=none;gradientDirection=east;fillColor=#2395FF;rounded=0;pointerEvents=0;fontFamily=Helvetica;fontSize=16;fontColor=#FFFFFF;spacingTop=4;spacingBottom=4;spacingLeft=4;spacingRight=4;points=[];fontStyle=1" vertex="1" parent="1">
          <mxGeometry x="628" y="222" width="30" height="30" as="geometry" />
        </mxCell>
      </root>
    </mxGraphModel>
  </diagram>
</mxfile>
